<!DOCTYPE svg PUBLIC "-//W3C//DTD SVG 1.1//EN" "http://www.w3.org/Graphics/SVG/1.1/DTD/svg11.dtd">
<!-- Uploaded to: SVG Repo, www.svgrepo.com, Transformed by: SVG Repo Mixer Tools -->
<svg version="1.1" id="Uploaded to svgrepo.com" xmlns="http://www.w3.org/2000/svg" xmlns:xlink="http://www.w3.org/1999/xlink" width="800px" height="800px" viewBox="0 0 32 32" xml:space="preserve" fill="#000000" transform="matrix(1, 0, 0, 1, 0, 0)">
<g id="SVGRepo_bgCarrier" stroke-width="0"/>
<g id="SVGRepo_tracerCarrier" stroke-linecap="round" stroke-linejoin="round"/>
<g id="SVGRepo_iconCarrier"> <style type="text/css"> .flatshadows_een{fill:#FDFFFF;} .flatshadows_twee{fill:#d6d6d6;} .flatshadows_drie{fill:#727979;} .flatshadows_vier{fill:#afb6b6;} .flatshadows_vijf{fill:#727979;} .st0{fill:#727979;} .st1{fill:#404041;} .st2{fill:#afb6b6;} </style> <g> <path class="flatshadows_een" d="M16,10C9.925,10,5,14.925,5,21s4.925,11,11,11s11-4.925,11-11S22.075,10,16,10z M16,31 c-5.523,0-10-4.477-10-10c0-5.523,4.477-10,10-10s10,4.477,10,10C26,26.523,21.523,31,16,31z"/> <path class="flatshadows_een" d="M16,10C9.925,10,5,14.925,5,21s4.925,11,11,11s11-4.925,11-11S22.075,10,16,10z"/> <path class="flatshadows_twee" d="M16,10v1c-5.523,0-10,4.477-10,10c0,5.523,4.477,10,10,10c0.624,0,1.233-0.065,1.826-0.174 l0.836,0.836C23.448,30.47,27,26.155,27,21C27,14.925,22.075,10,16,10z"/> <path class="flatshadows_drie" d="M8,21l9.826,9.826C22.475,29.967,26,25.898,26,21c0-5.523-4.477-10-10-10v10H8z"/> <rect x="15" y="3" class="flatshadows_vier" width="2" height="18"/> <polygon class="flatshadows_vijf" points="15,3 17,5 17,3 "/> <path class="flatshadows_een" d="M20,3h-6c-1.654,0-3-1.346-3-3h2c0,0.551,0.449,1,1,1h6V3z M18,21c0-1.105-0.895-2-2-2 c-0.738,0-1.376,0.405-1.723,1H11v-1H8v2h6c0,1.105,0.895,2,2,2c0.738,0,1.376-0.405,1.723-1H21v1h3v-2H18z"/> </g> </g>
</svg>